# xmcd CD database file
# Copyright (C) 1993-1996 Ti Kan
#
# Track frame offsets:
#	150
#	21140
#	38225
#	50820
#	72447
#	95752
#	108065
#	134762
#	147252
#	160070
#
# Disc length: 2463 seconds
#
# Revision: 1
# Processed by: cddbd v1.4b41PL1 Copyright (c) Steve Scherf et al.
# Submitted via: CDValet v3.01 - Copyright (c) 1997 Greg Leichner
#
DISCID=90099d0a
DTITLE=Cathy Ponton King - Lovin' You Right
DYEAR=1900
DGENRE=
TTITLE0=Sweet Sad And Lonely
TTITLE1=You Got Me Singing
TTITLE2=Gettin' You
TTITLE3=You're Looking Away
TTITLE4=Goin' Back
TTITLE5=Tell Me What I Want To Hear
TTITLE6=Lovin' You Right
TTITLE7=Why So Serious?
TTITLE8=Move A Lot
TTITLE9=Change My Way Of Livin'
EXTD=
EXTT0=
EXTT1=
EXTT2=
EXTT3=
EXTT4=
EXTT5=
EXTT6=
EXTT7=
EXTT8=
EXTT9=
PLAYORDER=
